<svg width="63" height="70" viewBox="0 0 63 70" fill="none" xmlns="http://www.w3.org/2000/svg">
<path d="M46.2995 18.2653L44.3947 16.9032V1L49.5649 5.93548H57.1841L61.8101 1V16.0806L58.9481 18.2653M46.2995 18.2653L52.8303 22.9355L58.9481 18.2653M46.2995 18.2653L40.0408 27.5968C32.9658 29.6075 16.4211 37.5226 6.84261 53.0968M58.9481 18.2653C61.7162 22.7468 66.7082 36.0968 51.5241 53.0968M56.0957 36.0968L49.5649 44.871L54.463 65.4355C56.2771 65.9839 59.3611 67.4645 57.1841 69H50.9254L50.0882 67.3548M39.7687 36.6452L40.0408 47.6129L43.5295 54.4677M43.5295 54.4677L28.3398 59.9516M43.5295 54.4677L50.0882 67.3548M29.4283 50.9032C30.8795 53.0054 31.714 58.6903 23.4417 64.6129M17.9994 64.6129L30.2446 65.4355C31.6052 65.6183 33.7277 66.5871 31.3331 69H11.7407C11.6384 68.0464 11.5721 66.7889 11.603 65.4355M14.734 56.6613C12.3894 57.9213 11.6815 61.9895 11.603 65.4355M11.603 65.4355C11.1132 64.936 10.5948 64.2944 10.0816 63.5161M10.0816 63.5161C6.651 58.3131 3.45631 46.9987 10.6522 31.1613C20.9927 8.40323 11.1965 8.67742 6.02626 6.75806C5.20991 7.39785 3.90376 9.11613 5.20991 10.871C8.83814 11.7849 14.734 15.6968 9.29167 24.0323C2.48876 34.4516 -2.13721 55.5645 3.57723 61.871C6.18953 64.7226 9.00195 64.1559 10.0816 63.5161ZM44.3947 58.0323L43.5295 65.4355C43.7132 66.5025 45.2822 68.3802 50.0882 67.3548" stroke="#262730" stroke-width="2" stroke-linecap="round" stroke-linejoin="round"/>
</svg>
