<svg width="54" height="78" viewBox="0 0 54 78" fill="none" xmlns="http://www.w3.org/2000/svg">
<path d="M24.805 18.227L17.7697 22.7581L10.1226 18.0028M24.805 18.227L26.3344 17.2419V1L21.1344 6.51613H14.7108L8.89908 1V17.2419L10.1226 18.0028M24.805 18.227L28.7814 24.9032C34.7971 25.6183 47.5014 29.6839 50.1932 40.2258C52.885 50.7677 53.1501 63.6183 52.9461 68.7258C53.0481 71.4839 51.845 77 46.2167 77C40.5885 77 14.303 77 1.8638 77L0.999998 74.8548L1.8638 72.7097H15.6285M45.605 68.7258C43.6473 71.4226 38.8756 72.5054 36.7344 72.7097H28.1697M15.6285 72.7097L16.5462 49.4194L10.1226 32.5645V18.0028M15.6285 72.7097H19.605M26.3344 34.0968L19.605 72.7097M19.605 72.7097H28.1697M30.3109 48.5C25.1109 51.4624 17.4026 60.4516 28.1697 72.7097" stroke="#262730" stroke-width="2" stroke-linecap="round" stroke-linejoin="round"/>
</svg>
