<svg width="130" height="28" viewBox="0 0 130 28" fill="none" xmlns="http://www.w3.org/2000/svg">
<path d="M37.0722 3.27754C37.4089 3.13087 38.1064 3.08198 39.1646 3.13087C40.2228 3.15532 40.9804 3.25309 41.4373 3.4242L42.3392 3.71753C43.0847 4.23085 43.5056 4.48751 43.6018 4.48751C44.5879 5.26972 45.1531 6.29637 45.2974 7.56746C45.4417 8.10523 45.4657 8.59411 45.3695 9.0341C45.3695 9.18077 45.3214 9.49854 45.2252 9.98742L44.8645 10.8307L44.4316 11.4541C44.2873 11.4785 44.2031 11.4907 44.179 11.4907C43.2892 11.6374 42.6037 11.6618 42.1227 11.5641C41.6417 11.4418 41.2209 11.173 40.8601 10.7574C40.788 10.6107 40.7519 10.4763 40.7519 10.3541C40.7759 10.2319 40.812 10.1219 40.8601 10.0241L41.0405 9.43743C41.3531 8.65522 41.3291 7.99523 40.9683 7.45746C40.9683 7.38413 40.8481 7.24969 40.6076 7.05414C40.3671 6.85859 40.1747 6.71192 40.0304 6.61414C39.9101 6.51637 39.6816 6.50415 39.3449 6.57748C38.7677 6.82192 38.2747 7.56746 37.8659 8.81411C37.3848 9.44965 37.0481 10.2807 36.8557 11.3074C36.5671 13.1407 36.4228 14.1796 36.4228 14.424L36.3868 15.2307V15.5607C36.3387 15.6095 36.3627 16.6729 36.4589 18.7506C36.483 18.8728 36.5311 19.0439 36.6032 19.2639C36.6754 19.5328 36.7836 19.9728 36.9279 20.5839L37.3969 21.3906C37.5171 21.4639 37.6734 21.6839 37.8659 22.0505C37.9861 22.0505 38.0823 22.1361 38.1545 22.3072C38.3228 22.4783 38.395 22.5761 38.3709 22.6005C38.4912 22.625 38.6715 22.6983 38.912 22.8205C39.5614 23.1627 40.1266 23.0894 40.6076 22.6005C40.7759 22.4294 40.9804 22.1972 41.2209 21.9039C41.4854 21.5861 41.6778 21.3417 41.7981 21.1706C41.9424 20.975 42.1588 20.7917 42.4474 20.6206C43.2411 20.0095 43.9265 20.0339 44.5037 20.6939C44.624 20.8895 44.636 21.3661 44.5398 22.1239C44.4676 22.8572 44.1309 23.6272 43.5297 24.4338C43.4816 24.5805 43.3252 24.8249 43.0607 25.1672C42.7961 25.4849 42.5196 25.7416 42.231 25.9371C42.1829 26.1083 41.269 26.2305 39.4892 26.3038C39.393 26.3038 39.2006 26.2794 38.912 26.2305C38.6475 26.3038 38.2867 26.2671 37.8298 26.1205C37.3969 25.9738 37.1564 25.9005 37.1083 25.9005L36.6393 25.7905C36.4469 25.7905 36.2545 25.7294 36.0621 25.6071C35.8697 25.4849 35.545 25.2772 35.0881 24.9838C34.6551 24.6661 34.3184 24.4094 34.0779 24.2138C33.3564 23.6272 32.8394 22.955 32.5267 22.1972C32.4305 22.0261 32.3704 21.7939 32.3463 21.5006C32.3223 21.1828 32.2742 20.9506 32.202 20.8039C32.0096 20.6083 31.9134 20.2906 31.9134 19.8506C31.9375 19.4106 31.9134 18.8728 31.8413 18.2373C31.8413 17.9439 31.8533 17.7728 31.8773 17.724C31.7571 17.6017 31.709 17.394 31.7331 17.1006C31.7571 16.7829 31.7691 16.3551 31.7691 15.8173C31.8413 15.6707 31.8653 15.2429 31.8413 14.534C31.8413 13.8007 31.8653 13.2507 31.9134 12.884C31.8172 12.664 31.8052 12.3463 31.8773 11.9307L31.9134 10.8307C31.9375 10.3907 32.0457 9.92631 32.2381 9.43743C32.2622 9.21743 32.3103 8.96077 32.3824 8.66744C32.4546 8.34967 32.7672 7.72635 33.3204 6.79747C33.3204 6.60192 33.5007 6.35748 33.8615 6.06416C33.8615 5.96638 33.9577 5.81971 34.1501 5.62416C34.3425 5.42861 34.5589 5.18417 34.7994 4.89084C35.1362 4.47529 35.5089 4.16974 35.9178 3.97419C36.3266 3.77864 36.7114 3.54642 37.0722 3.27754Z" fill="#262730"/>
<path d="M54.9064 15.194C54.8823 14.6562 54.7621 14.2529 54.5456 13.984C54.3292 13.6907 53.9323 13.5196 53.3551 13.4707C53.1868 13.5929 52.9583 14.0085 52.6697 14.7173C52.4051 15.4018 52.2368 16.1351 52.1646 16.9173C51.9241 18.0906 51.8039 19.2639 51.8039 20.4372C51.8279 21.635 52.0203 22.515 52.3811 23.0772C52.4292 23.175 52.4773 23.2116 52.5254 23.1872C52.6456 23.1872 52.838 22.9428 53.1026 22.4539C54.3773 20.1072 54.9785 17.6873 54.9064 15.194ZM56.0247 22.1972L55.4836 23.6272C55.4836 23.6761 55.1348 24.2016 54.4374 25.2038C54.2209 25.6683 53.8121 25.9249 53.2108 25.9738C52.6336 26.0227 52.0684 25.9616 51.5153 25.7905C50.7697 25.5216 50.2045 25.2038 49.8197 24.8372C49.4349 24.4705 49.0501 23.8594 48.6653 23.0039C48.3046 22.1239 48.1122 21.4028 48.0881 20.8406C47.9679 20.0339 47.9077 19.5206 47.9077 19.3006V18.4206C47.9077 17.5406 47.9438 17.0273 48.016 16.8806C48.04 16.7829 48.1001 16.5262 48.1964 16.1106C48.3166 15.084 48.6052 14.1062 49.0622 13.1774C49.952 11.393 50.8659 10.4763 51.8039 10.4274H51.9843C52.0324 10.4519 52.1045 10.4641 52.2007 10.4641H52.6697C53.5114 10.5374 54.0285 10.6107 54.2209 10.6841C54.5817 10.7819 54.8943 10.8307 55.1589 10.8307L56.0968 11.0141C56.3854 10.9896 56.7582 11.0507 57.2152 11.1974C57.6962 11.3441 57.9487 11.4541 57.9728 11.5274C58.0209 11.6007 58.093 11.8696 58.1892 12.334C58.2854 12.7985 58.3455 13.1407 58.3696 13.3607C58.4177 13.5562 58.4538 13.764 58.4778 13.984C58.6702 15.7684 58.9829 17.4306 59.4158 18.9706C59.4398 19.0439 59.4639 19.1539 59.4879 19.3006C59.512 19.4473 59.5961 19.7406 59.7404 20.1806C59.8847 20.5961 59.993 20.9506 60.0651 21.2439C60.1373 21.5372 60.2696 21.9283 60.462 22.4172C60.6063 22.7839 60.8227 23.2116 61.1113 23.7005C61.6404 24.4583 61.3638 25.0449 60.2816 25.4605C60.1373 25.5094 59.8848 25.5338 59.524 25.5338C59.4518 25.5338 59.2234 25.4116 58.8386 25.1672C58.5981 25.1672 58.3696 25.0327 58.1531 24.7638L57.8645 24.6905C57.6962 24.5194 57.5519 24.4338 57.4316 24.4338C57.3835 24.3849 56.9506 23.395 56.1329 21.4639C56.0608 21.7328 56.0247 21.9772 56.0247 22.1972Z" fill="#262730"/>
<path d="M65.9694 12.774L66.0054 12.444C65.5004 12.3952 65.1396 12.3585 64.9232 12.334C64.7308 12.2852 64.4061 12.2363 63.9491 12.1874C63.4922 12.1385 63.1314 12.0652 62.8669 11.9674C62.3618 11.7963 62.0732 11.3563 62.0011 10.6474C61.9289 9.91409 62.1574 9.46187 62.6865 9.29077C63.1675 9.16855 63.5042 9.10744 63.6966 9.10744C63.889 9.10744 64.2498 9.08299 64.7789 9.0341C65.0434 8.88744 65.4042 8.80188 65.8611 8.77744L66.4023 8.63078C66.4023 8.65522 66.4985 8.63078 66.6909 8.55744L66.8712 7.78746C66.8712 7.39635 66.9795 7.00525 67.1959 6.61414C67.1959 6.44304 67.3522 5.96638 67.6649 5.18417C67.6649 5.08639 67.8813 4.37752 68.3143 3.05754C68.4105 2.93532 68.7712 2.65421 69.3965 2.21422C69.7813 2.01867 70.3224 2.15311 71.0199 2.61755C71.4047 2.78866 71.6693 3.02087 71.8136 3.3142C71.6693 3.46087 71.5971 3.80308 71.5971 4.34085C71.5731 4.51196 71.4047 5.41639 71.092 7.05414V8.08079C71.2844 8.10523 71.5971 8.16634 72.03 8.26412C72.487 8.36189 73.0281 8.47189 73.6534 8.59411C74.8559 8.83855 75.6135 9.32743 75.9261 10.0608C76.0464 10.5985 76.0223 10.9774 75.854 11.1974C75.6856 11.4174 75.2768 11.5763 74.6274 11.6741C74.0983 11.6985 73.4009 11.7107 72.5351 11.7107C71.6933 11.7107 71.068 11.7718 70.6591 11.8941C70.611 12.334 70.587 12.6763 70.587 12.9207L70.5509 13.4707C70.5509 13.6418 70.4427 14.5462 70.2262 16.184C70.0819 16.404 69.9617 17.5406 69.8655 19.5939V22.2705C69.8655 22.7105 69.9016 23.1261 69.9737 23.5172C69.9978 24.055 70.0579 24.4338 70.1541 24.6538C70.1541 24.8738 70.2142 25.3383 70.3345 26.0471C70.0459 26.756 69.5649 27.1105 68.8915 27.1105C68.2421 27.1105 67.6649 26.866 67.1598 26.3771L66.763 25.7905C66.6909 25.5949 66.6307 25.4605 66.5826 25.3872C66.5586 25.3138 66.5345 25.2283 66.5105 25.1305C66.3421 24.6416 66.2099 24.3361 66.1137 24.2138C65.9694 24.0183 65.8972 23.8716 65.8972 23.7738C65.8972 23.6761 65.8972 23.5539 65.8972 23.4072C65.8491 22.9916 65.789 22.6372 65.7168 22.3439C65.5966 22.2217 65.5365 21.8061 65.5365 21.0972C65.5846 19.8017 65.5846 19.0562 65.5365 18.8606C65.6086 18.7873 65.6206 18.3228 65.5725 17.4673L65.6808 16.6606C65.6808 16.5629 65.7289 16.1962 65.8251 15.5607C65.777 15.4629 65.7649 15.2062 65.789 14.7907C65.813 14.3507 65.8491 14.0451 65.8972 13.874C65.9453 13.5807 65.9694 13.214 65.9694 12.774Z" fill="#262730"/>
<path d="M90.3069 3.49753C90.4031 4.0353 90.3791 4.74418 90.2348 5.62416C90.2348 5.8686 90.1867 6.18637 90.0905 6.57748C90.0905 6.79748 90.0664 7.10303 90.0183 7.49413L89.6937 9.87742C89.6456 10.7085 89.6215 11.9552 89.6215 13.6174C89.6215 15.2551 89.7177 16.6484 89.9101 17.7973C90.1025 18.9217 90.2829 19.5328 90.4512 19.6306C90.6196 19.7284 90.8 19.6061 90.9924 19.2639C90.9683 19.1417 91.0405 18.8362 91.2088 18.3473C91.4253 17.1251 91.6658 16.0251 91.9303 15.0473C92.2189 14.0696 92.3753 13.4462 92.3993 13.1774C92.3993 13.0063 92.4594 12.6396 92.5797 12.0774C92.7961 10.9774 92.9284 10.1341 92.9765 9.54743V9.2541C93.0727 7.98301 93.1208 7.10302 93.1208 6.61414C93.1208 6.10082 93.1088 5.66083 93.0847 5.29417L93.1208 4.01086C93.1449 3.71753 93.2531 3.46087 93.4455 3.24087L94.2391 2.91088C95.1531 2.91088 95.7303 3.11865 95.9708 3.5342C96.0429 3.65642 96.103 3.7542 96.1511 3.82753C96.1992 3.90086 96.2473 4.0353 96.2954 4.23085C96.3676 4.6464 96.4397 5.41639 96.5119 6.54081C96.584 7.66524 96.6081 8.41078 96.584 8.77744C96.56 9.11966 96.548 9.54743 96.548 10.0608L96.5119 10.5374C96.5119 10.8063 96.4518 11.6374 96.3315 13.0307L95.8265 16.954L95.1771 19.5573C94.6961 20.6328 94.3955 21.2317 94.2752 21.3539C94.2752 21.5006 94.155 21.7083 93.9145 21.9772C93.6018 22.2705 93.3854 22.515 93.2651 22.7105C93.1689 22.7839 93.0727 22.8939 92.9765 23.0405L92.6879 23.2605C92.1348 23.7494 91.6056 24.0061 91.1006 24.0305C90.6196 24.0305 90.1025 23.8472 89.5494 23.4805L88.6475 22.8205C88.5032 22.625 88.3108 22.4172 88.0703 22.1972C88.0462 22.1239 87.8658 21.9161 87.5291 21.5739C87.1924 21.2317 87.0241 20.9872 87.0241 20.8406C87.0241 20.6695 86.9159 20.3639 86.6994 19.9239C86.5311 19.7039 86.3988 19.4473 86.3026 19.1539C86.2545 19.105 86.1703 18.9217 86.0501 18.6039C85.9298 18.2617 85.8456 17.8828 85.7975 17.4673L85.3646 19.0806C85.3646 19.3006 85.2804 19.5817 85.1121 19.9239L84.8956 20.6206C83.9817 22.7961 83.5007 23.945 83.4526 24.0672C82.9716 24.6783 82.5628 25.0816 82.2261 25.2772C81.9134 25.4483 81.4565 25.5094 80.8552 25.4605C80.278 25.3872 79.7489 25.2649 79.2679 25.0938L78.6546 24.9472L78.0774 24.3238C77.8369 24.1038 77.6926 23.835 77.6445 23.5172L77.1395 22.3072C77.0673 22.1361 76.9831 21.7694 76.8869 21.2072V20.3272C76.8388 20.2539 76.8027 19.7772 76.7787 18.8973C76.7306 18.5062 76.7065 18.2739 76.7065 18.2006V17.9806C76.5863 17.8584 76.5021 17.2106 76.454 16.0373L76.4179 15.8173C76.4179 15.744 76.4059 15.634 76.3819 15.4873C76.3578 15.3162 76.3097 14.9129 76.2376 14.2773L76.1293 12.444C76.1774 12.1996 76.1774 11.8941 76.1293 11.5274V10.8674C76.1293 9.54743 76.2255 8.60633 76.4179 8.04412L76.7426 6.54081C76.911 6.00305 77.0192 5.52639 77.0673 5.11084C77.1395 4.67084 77.2357 4.35307 77.3559 4.15752C77.4762 3.96197 77.6686 3.74197 77.9331 3.49753C78.1977 3.22865 78.4261 3.05754 78.6185 2.98421C78.9071 2.93532 79.1837 2.91088 79.4483 2.91088C80.0495 2.69088 80.7831 2.80088 81.6489 3.24087C81.8894 3.41198 82.0216 3.6442 82.0457 3.93752C82.0938 4.23085 82.0216 5.06195 81.8292 6.43081C81.7811 6.65081 81.721 6.79748 81.6489 6.87081C81.7691 6.99303 81.7811 7.28636 81.6849 7.75079C81.6849 8.33745 81.6489 8.94855 81.5767 9.58409C81.5286 10.1952 81.5046 10.5741 81.5046 10.7207V11.1607C81.4805 11.3563 81.4685 11.6252 81.4685 11.9674C81.3963 12.334 81.3603 12.9085 81.3603 13.6907C81.3122 14.2529 81.3001 14.6073 81.3242 14.754L81.252 15.4507V15.9273C81.252 16.2206 81.2641 16.4284 81.2881 16.5506C81.24 17.064 81.228 17.7606 81.252 18.6406C81.3001 19.4961 81.3723 19.9239 81.4685 19.9239L82.4425 18.2739L82.659 17.9806C82.7071 17.8584 82.7913 17.5773 82.9115 17.1373C82.9837 17.0395 83.0799 16.7706 83.2001 16.3306L84.4988 13.9474C84.6912 13.3363 84.8235 12.9574 84.8956 12.8107L85.1842 12.0774C85.3045 12.0529 85.521 11.4541 85.8336 10.2807C85.8577 10.183 85.8817 9.79187 85.9058 9.10744C85.9298 8.39856 86.038 7.84857 86.2304 7.45746C86.2304 6.96858 86.3627 6.11304 86.6273 4.89084C86.6754 4.52418 86.6994 4.24308 86.6994 4.04752C86.9159 3.41198 87.1564 2.97199 87.4209 2.72755C87.7095 2.48311 88.2146 2.44644 88.9361 2.61755C89.6816 2.76421 90.1386 3.05754 90.3069 3.49753Z" fill="#262730"/>
<path d="M101.893 1.99423C101.917 1.96978 102.145 1.93312 102.578 1.88423C103.276 1.76201 103.757 1.8109 104.021 2.03089C104.31 2.22644 104.514 2.44644 104.634 2.69088C104.683 3.47309 104.574 4.48752 104.31 5.73416C104.045 6.54081 103.817 7.13969 103.624 7.5308L103.264 8.08079C103.191 8.27634 103.035 8.48411 102.795 8.70411C102.554 8.9241 102.374 9.0341 102.254 9.0341C102.157 9.00966 101.977 8.9241 101.712 8.77744C101.472 8.60633 101.328 8.48411 101.279 8.41078C101.255 8.33745 101.231 8.25189 101.207 8.15412L101.027 7.4208L100.305 6.50415C100.161 6.21082 100.089 5.91749 100.089 5.62416C100.017 4.93973 100.101 4.41418 100.342 4.04752C100.342 3.99863 100.378 3.87641 100.45 3.68086C100.57 3.14309 101.051 2.58088 101.893 1.99423ZM100.81 18.4573C100.81 18.2373 100.847 17.9439 100.919 17.5773C101.015 17.1862 101.039 16.9173 100.991 16.7706C100.967 16.624 100.967 16.2084 100.991 15.524C101.063 15.2307 101.075 14.9007 101.027 14.534C100.859 13.9962 100.81 13.6051 100.883 13.3607C100.955 13.1163 101.111 12.8474 101.352 12.554C101.592 12.2363 101.857 12.0163 102.145 11.8941C102.434 11.7718 102.867 11.7841 103.444 11.9307C103.588 12.0041 103.829 12.2485 104.165 12.664C104.238 12.7374 104.322 13.0185 104.418 13.5074C104.538 13.9962 104.61 14.534 104.634 15.1207C104.683 15.6829 104.719 16.514 104.743 17.614C104.767 18.6895 104.815 20.1439 104.887 21.9772C104.959 23.7861 104.971 24.9105 104.923 25.3505C104.899 25.7905 104.743 26.1205 104.454 26.3405C104.19 26.5849 103.949 26.6338 103.733 26.4871C103.54 26.3649 103.336 26.2794 103.119 26.2305C102.735 26.2305 102.398 26.0716 102.109 25.7538C102.013 25.7294 101.785 25.6194 101.424 25.4238C101.063 25.2038 100.835 24.8127 100.738 24.2505C100.618 24.0061 100.582 23.2116 100.63 21.8672V20.5472L100.81 19.3006V18.4573Z" fill="#262730"/>
<path d="M109.02 3.38753C109.02 3.3142 109.032 3.22865 109.056 3.13087V1.95756C109.08 1.88423 109.092 1.78645 109.092 1.66423C109.092 1.51757 109.116 1.39535 109.164 1.29757C109.164 0.979799 109.296 0.68647 109.561 0.417585C109.657 0.222034 109.789 0.0998138 109.958 0.0509249C110.27 -0.0712951 110.872 0.0264812 111.762 0.344254C111.738 0.31981 111.762 0.332032 111.834 0.380919C111.93 0.405363 111.99 0.417585 112.014 0.417585C112.255 0.44203 112.459 0.662026 112.627 1.07757C112.627 1.34646 112.676 2.22644 112.772 3.71753C112.868 5.20861 112.88 6.43081 112.808 7.38413V7.75079C112.736 9.60854 112.7 11.173 112.7 12.444C112.651 12.5907 112.651 12.7496 112.7 12.9207C112.651 13.214 112.627 13.9229 112.627 15.0473L112.916 14.644L113.096 14.2773C113.096 14.204 113.144 14.1185 113.241 14.0207C113.337 13.8985 113.397 13.8129 113.421 13.764C113.445 13.6907 113.481 13.6296 113.529 13.5807C113.577 13.5074 113.613 13.4462 113.638 13.3974C113.686 13.324 113.818 13.214 114.034 13.0674C114.034 12.994 114.167 12.8351 114.431 12.5907L116.091 10.4641L117.029 9.80409C117.125 9.65743 117.365 9.5352 117.75 9.43743C118.159 9.31521 118.532 9.26632 118.868 9.29077C119.229 9.07077 119.758 9.19299 120.456 9.65743C120.816 9.99964 120.829 10.4274 120.492 10.9407C119.891 11.8452 119.53 12.3707 119.41 12.5174L117.858 14.7173L117.425 15.414C116.584 16.514 116.055 17.174 115.838 17.394C115.646 17.5895 115.562 17.7606 115.586 17.9073C115.898 18.2251 116.163 18.4328 116.379 18.5306C116.475 18.6528 116.56 18.7628 116.632 18.8606C116.728 18.9339 116.776 18.9828 116.776 19.0073L118.508 20.7672C119.398 21.745 120.059 22.5516 120.492 23.1872L122.151 25.0572C122.56 25.3016 122.765 25.5583 122.765 25.8271C122.765 26.096 122.536 26.3282 122.079 26.5238C121.935 26.6705 121.49 26.7071 120.744 26.6338C120.239 26.7316 119.867 26.7194 119.626 26.5971C118.953 26.5727 118.303 26.3405 117.678 25.9005C117.269 25.5827 117.065 25.3505 117.065 25.2038C116.944 25.0327 116.824 24.8861 116.704 24.7638C116.56 24.5683 116.439 24.3849 116.343 24.2138C116.151 24.1161 115.91 23.7983 115.622 23.2605C115.405 23.1139 115.297 23.0283 115.297 23.0039C115.297 22.955 115.225 22.8694 115.081 22.7472C114.936 22.625 114.84 22.5516 114.792 22.5272C114.792 22.4294 114.587 22.1239 114.179 21.6106C114.034 21.5372 113.914 21.4394 113.818 21.3172C113.746 21.1706 113.722 21.0972 113.746 21.0972L113.06 20.2172L112.772 19.7773C112.772 21.635 112.952 23.505 113.313 25.3872C113.361 25.7783 113.385 26.0105 113.385 26.0838C113.409 26.1571 113.421 26.2182 113.421 26.2671C113.445 26.3405 113.457 26.3894 113.457 26.4138L113.205 26.3038C113.277 26.3527 113.349 26.4871 113.421 26.7071C113.493 26.9271 113.517 27.0738 113.493 27.1471C113.277 27.3916 113.132 27.5504 113.06 27.6238C113.012 27.6971 112.856 27.746 112.591 27.7704C112.351 27.7949 112.219 27.7582 112.194 27.6604C111.762 27.4405 111.509 27.2938 111.437 27.2205C111.293 27.196 111.004 27.0738 110.571 26.8538C110.547 26.756 110.511 26.6827 110.463 26.6338C110.246 26.4871 110.078 26.3038 109.958 26.0838C109.862 26.0349 109.753 25.8638 109.633 25.5705C109.417 25.1549 109.308 24.7027 109.308 24.2138C109.26 24.0183 109.224 23.9083 109.2 23.8838C109.176 23.8594 109.164 23.7616 109.164 23.5905L109.056 22.6372C108.984 22.3683 108.972 22.1361 109.02 21.9405L108.84 21.3539L108.767 20.0706L108.84 19.5573C108.695 19.3373 108.683 19.0195 108.803 18.6039V18.3839C108.779 18.3351 108.755 18.1151 108.731 17.724C108.707 17.3328 108.707 17.1006 108.731 17.0273C108.755 16.954 108.767 16.8684 108.767 16.7706C108.719 16.4284 108.695 16.1229 108.695 15.854V15.4507C108.575 13.0063 108.515 11.7596 108.515 11.7107V10.6841C108.491 10.513 108.503 10.1096 108.551 9.4741C108.623 8.83855 108.647 8.32523 108.623 7.93412C108.623 7.54302 108.647 7.29858 108.695 7.2008C108.695 6.98081 108.719 6.76081 108.767 6.54081V6.13749C108.791 6.06416 108.815 5.83194 108.84 5.44083L109.02 3.38753Z" fill="#262730"/>
<path d="M127.957 4.96417H128.065C128.907 5.01306 129.448 5.26972 129.688 5.73416C129.953 6.17415 130.049 6.60192 129.977 7.01747C129.929 7.43302 129.604 7.94634 129.003 8.55744C128.426 9.16854 127.896 9.46187 127.415 9.43743C127.271 9.43743 126.983 9.3641 126.55 9.21743C126.141 9.07077 125.924 8.98521 125.9 8.96077C125.876 8.86299 125.804 8.78966 125.684 8.74077C125.059 8.49633 124.71 7.87301 124.638 6.87081C124.638 6.77303 124.71 6.6997 124.854 6.65081C124.758 6.65081 124.746 6.50415 124.818 6.21082C124.986 5.67305 125.359 5.31861 125.936 5.1475C126.682 5.00084 127.355 4.93973 127.957 4.96417ZM127.884 14.2407L127.271 20.3639C127.271 20.5106 127.271 20.6572 127.271 20.8039C127.271 20.9261 127.283 21.0361 127.307 21.1339C127.283 21.2317 127.271 21.3539 127.271 21.5006V24.1405C127.367 24.9716 127.367 25.4605 127.271 25.6071C127.127 25.656 126.959 25.7294 126.766 25.8271C126.574 25.9494 126.201 25.9738 125.648 25.9005C125.119 25.8516 124.734 25.766 124.493 25.6438L124.06 25.5338C123.82 25.5338 123.664 25.4238 123.591 25.2038C123.279 25.0083 123.11 24.7516 123.086 24.4338C123.014 24.3116 123.098 24.1405 123.339 23.9205C123.315 23.7983 123.267 23.6272 123.195 23.4072C123.123 23.1627 123.098 22.9428 123.122 22.7472C123.195 22.625 123.159 22.4416 123.014 22.1972C123.014 21.9283 123.05 21.6228 123.122 21.2806C123.219 21.1828 123.243 20.8283 123.195 20.2172C123.363 19.9728 123.447 19.6306 123.447 19.1906C123.351 18.7995 123.387 18.4084 123.555 18.0173C123.724 17.6262 123.82 17.2351 123.844 16.844C123.892 16.2329 124 15.634 124.169 15.0473C124.169 14.8029 124.277 14.4118 124.493 13.874C124.734 13.3363 124.89 13.0185 124.962 12.9207L125.54 12.334L126.189 12.0774H126.225C126.514 11.9796 126.802 11.9918 127.091 12.114C127.788 12.3829 128.209 12.5907 128.353 12.7374C128.257 12.8351 128.197 12.9818 128.173 13.1774C128.149 13.3729 128.125 13.544 128.101 13.6907C128.005 13.8129 127.933 13.9962 127.884 14.2407Z" fill="#262730"/>
<path d="M4.60511 24.5403C3.95579 23.7189 3.79346 22.1727 4.76744 20.0468C5.49507 18.4585 7.0343 17.2523 7.8517 16.7586C7.8583 16.7544 7.86651 16.7495 7.87629 16.7439C8.34764 16.4751 12.4673 14.7209 15.8599 16.5196C19.0517 18.2118 19.2766 19.6119 19.8641 21.448C20.4515 23.284 19.3771 25.1201 18.1326 25.6032C16.888 26.0864 15.0483 24.9268 13.6414 24.1054C12.2346 23.284 10.8277 23.6706 8.82567 24.9268C6.82361 26.183 5.25443 25.3617 4.60511 24.5403Z" fill="#262730"/>
<path d="M6.89124 5.08876C6.05169 5.64259 5.61425 6.09376 5.26795 7.02145C4.83507 8.18106 4.67274 9.92048 5.5385 11.2734C6.40425 12.6262 7.59467 13.2061 8.56865 13.1094C9.54263 13.0128 11.0577 12.6746 11.8152 10.5486C12.5728 8.42265 11.625 6.65724 11.0036 5.7652C10.5324 5.08877 9.24416 3.95149 6.89124 5.08876Z" fill="#262730"/>
<path d="M14.6027 5.08904C13.7632 5.64288 13.3257 6.09404 12.9794 7.02173C12.5466 8.18134 12.3842 9.92076 13.25 11.2736C14.1158 12.6265 15.3062 13.2063 16.2801 13.1097C17.2541 13.0131 18.7692 12.6748 19.5267 10.5489C20.2843 8.42293 19.3365 6.65753 18.7151 5.76548C18.2439 5.08905 16.9557 3.95177 14.6027 5.08904Z" fill="#262730"/>
<path d="M20.9474 11.2256C20.2569 11.6403 19.891 11.9854 19.5803 12.7115C19.1919 13.6191 18.9979 14.995 19.6388 16.0946C20.2796 17.1942 21.2082 17.6898 21.989 17.642C22.7699 17.5942 23.9916 17.3707 24.6749 15.7057C25.3582 14.0406 24.6672 12.6111 24.2043 11.8846C23.8533 11.3337 22.8673 10.3927 20.9474 11.2256Z" fill="#262730"/>
<path d="M1.45032 11.314C0.798774 11.7763 0.464752 12.1462 0.219461 12.892C-0.0871535 13.8243 -0.158363 15.2096 0.57807 16.2603C1.3145 17.3111 2.28415 17.7394 3.05833 17.6365C3.83251 17.5336 5.03048 17.2243 5.56381 15.5161C6.09715 13.8079 5.28141 12.4319 4.75547 11.7404C4.35666 11.2161 3.29025 10.3478 1.45032 11.314Z" fill="#262730"/>
</svg>
