<svg width="208" height="42" viewBox="0 0 208 42" fill="none" xmlns="http://www.w3.org/2000/svg">
<path d="M57.0455 7.624C57.4935 7.432 58.4215 7.368 59.8295 7.432C61.2375 7.464 62.2455 7.592 62.8535 7.816L64.0535 8.2C65.0455 8.872 65.6055 9.208 65.7335 9.208C67.0455 10.232 67.7975 11.576 67.9895 13.24C68.1815 13.944 68.2135 14.584 68.0855 15.16C68.0855 15.352 68.0215 15.768 67.8935 16.408L67.4135 17.512L66.8375 18.328C66.6455 18.36 66.5335 18.376 66.5015 18.376C65.3175 18.568 64.4055 18.6 63.7655 18.472C63.1255 18.312 62.5655 17.96 62.0855 17.416C61.9895 17.224 61.9415 17.048 61.9415 16.888C61.9735 16.728 62.0215 16.584 62.0855 16.456L62.3255 15.688C62.7415 14.664 62.7095 13.8 62.2295 13.096C62.2295 13 62.0695 12.824 61.7495 12.568C61.4295 12.312 61.1735 12.12 60.9815 11.992C60.8215 11.864 60.5175 11.848 60.0695 11.944C59.3015 12.264 58.6455 13.24 58.1015 14.872C57.4615 15.704 57.0135 16.792 56.7575 18.136C56.3735 20.536 56.1815 21.896 56.1815 22.216L56.1335 23.272V23.704C56.0695 23.768 56.1015 25.16 56.2295 27.88C56.2615 28.04 56.3255 28.264 56.4215 28.552C56.5175 28.904 56.6615 29.48 56.8535 30.28L57.4775 31.336C57.6375 31.432 57.8455 31.72 58.1015 32.2C58.2615 32.2 58.3895 32.312 58.4855 32.536C58.7095 32.76 58.8055 32.888 58.7735 32.92C58.9335 32.952 59.1735 33.048 59.4935 33.208C60.3575 33.656 61.1095 33.56 61.7495 32.92C61.9735 32.696 62.2455 32.392 62.5655 32.008C62.9175 31.592 63.1735 31.272 63.3335 31.048C63.5255 30.792 63.8135 30.552 64.1975 30.328C65.2535 29.528 66.1655 29.56 66.9335 30.424C67.0935 30.68 67.1095 31.304 66.9815 32.296C66.8855 33.256 66.4375 34.264 65.6375 35.32C65.5735 35.512 65.3655 35.832 65.0135 36.28C64.6615 36.696 64.2935 37.032 63.9095 37.288C63.8455 37.512 62.6295 37.672 60.2615 37.768C60.1335 37.768 59.8775 37.736 59.4935 37.672C59.1415 37.768 58.6615 37.72 58.0535 37.528C57.4775 37.336 57.1575 37.24 57.0935 37.24L56.4695 37.096C56.2135 37.096 55.9575 37.016 55.7015 36.856C55.4455 36.696 55.0135 36.424 54.4055 36.04C53.8295 35.624 53.3815 35.288 53.0615 35.032C52.1015 34.264 51.4135 33.384 50.9975 32.392C50.8695 32.168 50.7895 31.864 50.7575 31.48C50.7255 31.064 50.6615 30.76 50.5655 30.568C50.3095 30.312 50.1815 29.896 50.1815 29.32C50.2135 28.744 50.1815 28.04 50.0855 27.208C50.0855 26.824 50.1015 26.6 50.1335 26.536C49.9735 26.376 49.9095 26.104 49.9415 25.72C49.9735 25.304 49.9895 24.744 49.9895 24.04C50.0855 23.848 50.1175 23.288 50.0855 22.36C50.0855 21.4 50.1175 20.68 50.1815 20.2C50.0535 19.912 50.0375 19.496 50.1335 18.952L50.1815 17.512C50.2135 16.936 50.3575 16.328 50.6135 15.688C50.6455 15.4 50.7095 15.064 50.8055 14.68C50.9015 14.264 51.3175 13.448 52.0535 12.232C52.0535 11.976 52.2935 11.656 52.7735 11.272C52.7735 11.144 52.9015 10.952 53.1575 10.696C53.4135 10.44 53.7015 10.12 54.0215 9.736C54.4695 9.192 54.9655 8.792 55.5095 8.536C56.0535 8.28 56.5655 7.976 57.0455 7.624ZM80.7747 23.224C80.7427 22.52 80.5827 21.992 80.2947 21.64C80.0067 21.256 79.4787 21.032 78.7107 20.968C78.4867 21.128 78.1827 21.672 77.7987 22.6C77.4467 23.496 77.2227 24.456 77.1267 25.48C76.8067 27.016 76.6467 28.552 76.6467 30.088C76.6787 31.656 76.9347 32.808 77.4147 33.544C77.4787 33.672 77.5427 33.72 77.6067 33.688C77.7667 33.688 78.0227 33.368 78.3747 32.728C80.0707 29.656 80.8707 26.488 80.7747 23.224ZM82.2627 32.392L81.5427 34.264C81.5427 34.328 81.0787 35.016 80.1507 36.328C79.8627 36.936 79.3187 37.272 78.5187 37.336C77.7507 37.4 76.9987 37.32 76.2627 37.096C75.2707 36.744 74.5187 36.328 74.0067 35.848C73.4947 35.368 72.9827 34.568 72.4707 33.448C71.9907 32.296 71.7347 31.352 71.7027 30.616C71.5427 29.56 71.4627 28.888 71.4627 28.6V27.448C71.4627 26.296 71.5107 25.624 71.6067 25.432C71.6387 25.304 71.7187 24.968 71.8467 24.424C72.0067 23.08 72.3907 21.8 72.9987 20.584C74.1827 18.248 75.3987 17.048 76.6467 16.984H76.8867C76.9507 17.016 77.0467 17.032 77.1747 17.032H77.7987C78.9187 17.128 79.6067 17.224 79.8627 17.32C80.3427 17.448 80.7587 17.512 81.1107 17.512L82.3587 17.752C82.7427 17.72 83.2387 17.8 83.8467 17.992C84.4867 18.184 84.8227 18.328 84.8547 18.424C84.9187 18.52 85.0147 18.872 85.1427 19.48C85.2707 20.088 85.3507 20.536 85.3827 20.824C85.4467 21.08 85.4947 21.352 85.5267 21.64C85.7827 23.976 86.1987 26.152 86.7747 28.168C86.8067 28.264 86.8387 28.408 86.8707 28.6C86.9027 28.792 87.0147 29.176 87.2067 29.752C87.3987 30.296 87.5427 30.76 87.6387 31.144C87.7347 31.528 87.9107 32.04 88.1667 32.68C88.3587 33.16 88.6467 33.72 89.0307 34.36C89.7347 35.352 89.3667 36.12 87.9267 36.664C87.7347 36.728 87.3987 36.76 86.9187 36.76C86.8227 36.76 86.5187 36.6 86.0067 36.28C85.6867 36.28 85.3827 36.104 85.0947 35.752L84.7107 35.656C84.4867 35.432 84.2947 35.32 84.1347 35.32C84.0707 35.256 83.4947 33.96 82.4067 31.432C82.3107 31.784 82.2627 32.104 82.2627 32.392ZM95.4946 20.056L95.5426 19.624C94.8706 19.56 94.3906 19.512 94.1026 19.48C93.8466 19.416 93.4146 19.352 92.8066 19.288C92.1986 19.224 91.7186 19.128 91.3666 19C90.6946 18.776 90.3106 18.2 90.2146 17.272C90.1186 16.312 90.4226 15.72 91.1266 15.496C91.7666 15.336 92.2146 15.256 92.4706 15.256C92.7266 15.256 93.2066 15.224 93.9106 15.16C94.2626 14.968 94.7426 14.856 95.3506 14.824L96.0706 14.632C96.0706 14.664 96.1986 14.632 96.4546 14.536L96.6946 13.528C96.6946 13.016 96.8386 12.504 97.1266 11.992C97.1266 11.768 97.3346 11.144 97.7506 10.12C97.7506 9.992 98.0386 9.064 98.6146 7.336C98.7426 7.176 99.2226 6.808 100.055 6.232C100.567 5.976 101.287 6.152 102.215 6.76C102.727 6.984 103.079 7.288 103.271 7.672C103.079 7.864 102.983 8.312 102.983 9.016C102.951 9.24 102.727 10.424 102.311 12.568V13.912C102.567 13.944 102.983 14.024 103.559 14.152C104.167 14.28 104.887 14.424 105.719 14.584C107.319 14.904 108.327 15.544 108.743 16.504C108.903 17.208 108.871 17.704 108.647 17.992C108.423 18.28 107.879 18.488 107.015 18.616C106.311 18.648 105.383 18.664 104.231 18.664C103.111 18.664 102.279 18.744 101.735 18.904C101.671 19.48 101.639 19.928 101.639 20.248L101.591 20.968C101.591 21.192 101.447 22.376 101.159 24.52C100.967 24.808 100.807 26.296 100.679 28.984V32.488C100.679 33.064 100.727 33.608 100.823 34.12C100.855 34.824 100.935 35.32 101.063 35.608C101.063 35.896 101.143 36.504 101.303 37.432C100.919 38.36 100.279 38.824 99.3826 38.824C98.5186 38.824 97.7506 38.504 97.0786 37.864L96.5506 37.096C96.4546 36.84 96.3746 36.664 96.3106 36.568C96.2786 36.472 96.2466 36.36 96.2146 36.232C95.9906 35.592 95.8146 35.192 95.6866 35.032C95.4946 34.776 95.3986 34.584 95.3986 34.456C95.3986 34.328 95.3986 34.168 95.3986 33.976C95.3346 33.432 95.2546 32.968 95.1586 32.584C94.9986 32.424 94.9186 31.88 94.9186 30.952C94.9826 29.256 94.9826 28.28 94.9186 28.024C95.0146 27.928 95.0306 27.32 94.9666 26.2L95.1106 25.144C95.1106 25.016 95.1746 24.536 95.3026 23.704C95.2386 23.576 95.2226 23.24 95.2546 22.696C95.2866 22.12 95.3346 21.72 95.3986 21.496C95.4626 21.112 95.4946 20.632 95.4946 20.056ZM127.877 7.912C128.005 8.616 127.973 9.544 127.781 10.696C127.781 11.016 127.717 11.432 127.589 11.944C127.589 12.232 127.557 12.632 127.493 13.144L127.061 16.264C126.997 17.352 126.965 18.984 126.965 21.16C126.965 23.304 127.093 25.128 127.349 26.632C127.605 28.104 127.845 28.904 128.069 29.032C128.293 29.16 128.533 29 128.789 28.552C128.757 28.392 128.853 27.992 129.077 27.352C129.365 25.752 129.685 24.312 130.037 23.032C130.421 21.752 130.629 20.936 130.661 20.584C130.661 20.36 130.741 19.88 130.901 19.144C131.189 17.704 131.365 16.6 131.429 15.832V15.448C131.557 13.784 131.621 12.632 131.621 11.992C131.621 11.32 131.605 10.744 131.573 10.264L131.621 8.584C131.653 8.2 131.797 7.864 132.053 7.576L133.109 7.144C134.325 7.144 135.093 7.416 135.413 7.96C135.509 8.12 135.589 8.248 135.653 8.344C135.717 8.44 135.781 8.616 135.845 8.872C135.941 9.416 136.037 10.424 136.133 11.896C136.229 13.368 136.261 14.344 136.229 14.824C136.197 15.272 136.181 15.832 136.181 16.504L136.133 17.128C136.133 17.48 136.053 18.568 135.893 20.392L135.221 25.528L134.357 28.936C133.717 30.344 133.317 31.128 133.157 31.288C133.157 31.48 132.997 31.752 132.677 32.104C132.261 32.488 131.973 32.808 131.813 33.064C131.685 33.16 131.557 33.304 131.429 33.496L131.045 33.784C130.309 34.424 129.605 34.76 128.933 34.792C128.293 34.792 127.605 34.552 126.869 34.072L125.669 33.208C125.477 32.952 125.221 32.68 124.901 32.392C124.869 32.296 124.629 32.024 124.181 31.576C123.733 31.128 123.509 30.808 123.509 30.616C123.509 30.392 123.365 29.992 123.077 29.416C122.853 29.128 122.677 28.792 122.549 28.408C122.485 28.344 122.373 28.104 122.213 27.688C122.053 27.24 121.941 26.744 121.877 26.2L121.301 28.312C121.301 28.6 121.189 28.968 120.965 29.416L120.677 30.328C119.461 33.176 118.821 34.68 118.757 34.84C118.117 35.64 117.573 36.168 117.125 36.424C116.709 36.648 116.101 36.728 115.301 36.664C114.533 36.568 113.829 36.408 113.189 36.184L112.373 35.992L111.605 35.176C111.285 34.888 111.093 34.536 111.029 34.12L110.357 32.536C110.261 32.312 110.149 31.832 110.021 31.096V29.944C109.957 29.848 109.909 29.224 109.877 28.072C109.813 27.56 109.781 27.256 109.781 27.16V26.872C109.621 26.712 109.509 25.864 109.445 24.328L109.397 24.04C109.397 23.944 109.381 23.8 109.349 23.608C109.317 23.384 109.253 22.856 109.157 22.024L109.013 19.624C109.077 19.304 109.077 18.904 109.013 18.424V17.56C109.013 15.832 109.141 14.6 109.397 13.864L109.829 11.896C110.053 11.192 110.197 10.568 110.261 10.024C110.357 9.448 110.485 9.032 110.645 8.776C110.805 8.52 111.061 8.232 111.413 7.912C111.765 7.56 112.069 7.336 112.325 7.24C112.709 7.176 113.077 7.144 113.429 7.144C114.229 6.856 115.205 7 116.357 7.576C116.677 7.8 116.853 8.104 116.885 8.488C116.949 8.872 116.853 9.96 116.597 11.752C116.533 12.04 116.453 12.232 116.357 12.328C116.517 12.488 116.533 12.872 116.405 13.48C116.405 14.248 116.357 15.048 116.261 15.88C116.197 16.68 116.165 17.176 116.165 17.368V17.944C116.133 18.2 116.117 18.552 116.117 19C116.021 19.48 115.973 20.232 115.973 21.256C115.909 21.992 115.893 22.456 115.925 22.648L115.829 23.56V24.184C115.829 24.568 115.845 24.84 115.877 25C115.813 25.672 115.797 26.584 115.829 27.736C115.893 28.856 115.989 29.416 116.117 29.416L117.413 27.256L117.701 26.872C117.765 26.712 117.877 26.344 118.037 25.768C118.133 25.64 118.261 25.288 118.421 24.712L120.149 21.592C120.405 20.792 120.581 20.296 120.677 20.104L121.061 19.144C121.221 19.112 121.509 18.328 121.925 16.792C121.957 16.664 121.989 16.152 122.021 15.256C122.053 14.328 122.197 13.608 122.453 13.096C122.453 12.456 122.629 11.336 122.981 9.736C123.045 9.256 123.077 8.888 123.077 8.632C123.365 7.8 123.685 7.224 124.037 6.904C124.421 6.584 125.093 6.536 126.053 6.76C127.045 6.952 127.653 7.336 127.877 7.912ZM143.292 5.944C143.324 5.912 143.628 5.864 144.204 5.8C145.132 5.64 145.772 5.704 146.124 5.992C146.508 6.248 146.78 6.536 146.94 6.856C147.004 7.88 146.86 9.208 146.508 10.84C146.156 11.896 145.852 12.68 145.596 13.192L145.116 13.912C145.02 14.168 144.812 14.44 144.492 14.728C144.172 15.016 143.932 15.16 143.772 15.16C143.644 15.128 143.404 15.016 143.052 14.824C142.732 14.6 142.54 14.44 142.476 14.344C142.444 14.248 142.412 14.136 142.38 14.008L142.14 13.048L141.18 11.848C140.988 11.464 140.892 11.08 140.892 10.696C140.796 9.8 140.908 9.112 141.228 8.632C141.228 8.568 141.276 8.408 141.372 8.152C141.532 7.448 142.172 6.712 143.292 5.944ZM141.852 27.496C141.852 27.208 141.9 26.824 141.996 26.344C142.124 25.832 142.156 25.48 142.092 25.288C142.06 25.096 142.06 24.552 142.092 23.656C142.188 23.272 142.204 22.84 142.14 22.36C141.916 21.656 141.852 21.144 141.948 20.824C142.044 20.504 142.252 20.152 142.572 19.768C142.892 19.352 143.244 19.064 143.628 18.904C144.012 18.744 144.588 18.76 145.356 18.952C145.548 19.048 145.868 19.368 146.316 19.912C146.412 20.008 146.524 20.376 146.652 21.016C146.812 21.656 146.908 22.36 146.94 23.128C147.004 23.864 147.052 24.952 147.084 26.392C147.116 27.8 147.18 29.704 147.276 32.104C147.372 34.472 147.388 35.944 147.324 36.52C147.292 37.096 147.084 37.528 146.7 37.816C146.348 38.136 146.028 38.2 145.74 38.008C145.484 37.848 145.212 37.736 144.924 37.672C144.412 37.672 143.964 37.464 143.58 37.048C143.452 37.016 143.148 36.872 142.668 36.616C142.188 36.328 141.884 35.816 141.756 35.08C141.596 34.76 141.548 33.72 141.612 31.96V30.232L141.852 28.6V27.496ZM152.775 7.768C152.775 7.672 152.791 7.56 152.823 7.432V5.896C152.855 5.8 152.871 5.672 152.871 5.512C152.871 5.32 152.903 5.16 152.967 5.032C152.967 4.616 153.143 4.232 153.495 3.88C153.623 3.624 153.799 3.464 154.023 3.4C154.439 3.24 155.239 3.368 156.423 3.784C156.391 3.752 156.423 3.768 156.519 3.832C156.647 3.864 156.727 3.88 156.759 3.88C157.079 3.912 157.351 4.2 157.575 4.744C157.575 5.096 157.639 6.248 157.767 8.2C157.895 10.152 157.911 11.752 157.815 13V13.48C157.719 15.912 157.671 17.96 157.671 19.624C157.607 19.816 157.607 20.024 157.671 20.248C157.607 20.632 157.575 21.56 157.575 23.032L157.959 22.504L158.199 22.024C158.199 21.928 158.263 21.816 158.391 21.688C158.519 21.528 158.599 21.416 158.631 21.352C158.663 21.256 158.711 21.176 158.775 21.112C158.839 21.016 158.887 20.936 158.919 20.872C158.983 20.776 159.159 20.632 159.447 20.44C159.447 20.344 159.623 20.136 159.975 19.816L162.183 17.032L163.431 16.168C163.559 15.976 163.879 15.816 164.391 15.688C164.935 15.528 165.431 15.464 165.879 15.496C166.359 15.208 167.063 15.368 167.991 15.976C168.471 16.424 168.487 16.984 168.039 17.656C167.239 18.84 166.759 19.528 166.599 19.72L164.535 22.6L163.959 23.512C162.839 24.952 162.135 25.816 161.847 26.104C161.591 26.36 161.479 26.584 161.511 26.776C161.927 27.192 162.279 27.464 162.567 27.592C162.695 27.752 162.807 27.896 162.903 28.024C163.031 28.12 163.095 28.184 163.095 28.216L165.399 30.52C166.583 31.8 167.463 32.856 168.039 33.688L170.247 36.136C170.791 36.456 171.063 36.792 171.063 37.144C171.063 37.496 170.759 37.8 170.151 38.056C169.959 38.248 169.367 38.296 168.375 38.2C167.703 38.328 167.207 38.312 166.887 38.152C165.991 38.12 165.127 37.816 164.295 37.24C163.751 36.824 163.479 36.52 163.479 36.328C163.319 36.104 163.159 35.912 162.999 35.752C162.807 35.496 162.647 35.256 162.519 35.032C162.263 34.904 161.943 34.488 161.559 33.784C161.271 33.592 161.127 33.48 161.127 33.448C161.127 33.384 161.031 33.272 160.839 33.112C160.647 32.952 160.519 32.856 160.455 32.824C160.455 32.696 160.183 32.296 159.639 31.624C159.447 31.528 159.287 31.4 159.159 31.24C159.063 31.048 159.031 30.952 159.063 30.952L158.151 29.8L157.767 29.224C157.767 31.656 158.007 34.104 158.487 36.568C158.551 37.08 158.583 37.384 158.583 37.48C158.615 37.576 158.631 37.656 158.631 37.72C158.663 37.816 158.679 37.88 158.679 37.912L158.343 37.768C158.439 37.832 158.535 38.008 158.631 38.296C158.727 38.584 158.759 38.776 158.727 38.872C158.439 39.192 158.247 39.4 158.151 39.496C158.087 39.592 157.879 39.656 157.527 39.688C157.207 39.72 157.031 39.672 156.999 39.544C156.423 39.256 156.087 39.064 155.991 38.968C155.799 38.936 155.415 38.776 154.839 38.488C154.807 38.36 154.759 38.264 154.695 38.2C154.407 38.008 154.183 37.768 154.023 37.48C153.895 37.416 153.751 37.192 153.591 36.808C153.303 36.264 153.159 35.672 153.159 35.032C153.095 34.776 153.047 34.632 153.015 34.6C152.983 34.568 152.967 34.44 152.967 34.216L152.823 32.968C152.727 32.616 152.711 32.312 152.775 32.056L152.535 31.288L152.439 29.608L152.535 28.936C152.343 28.648 152.327 28.232 152.487 27.688V27.4C152.455 27.336 152.423 27.048 152.391 26.536C152.359 26.024 152.359 25.72 152.391 25.624C152.423 25.528 152.439 25.416 152.439 25.288C152.375 24.84 152.343 24.44 152.343 24.088V23.56C152.183 20.36 152.103 18.728 152.103 18.664V17.32C152.071 17.096 152.087 16.568 152.151 15.736C152.247 14.904 152.279 14.232 152.247 13.72C152.247 13.208 152.279 12.888 152.343 12.76C152.343 12.472 152.375 12.184 152.439 11.896V11.368C152.471 11.272 152.503 10.968 152.535 10.456L152.775 7.768ZM177.972 9.832H178.116C179.236 9.896 179.956 10.232 180.276 10.84C180.628 11.416 180.756 11.976 180.66 12.52C180.596 13.064 180.164 13.736 179.364 14.536C178.596 15.336 177.892 15.72 177.252 15.688C177.06 15.688 176.676 15.592 176.1 15.4C175.556 15.208 175.268 15.096 175.236 15.064C175.204 14.936 175.108 14.84 174.948 14.776C174.116 14.456 173.652 13.64 173.556 12.328C173.556 12.2 173.652 12.104 173.844 12.04C173.716 12.04 173.7 11.848 173.796 11.464C174.02 10.76 174.516 10.296 175.284 10.072C176.276 9.88 177.172 9.8 177.972 9.832ZM177.876 21.976L177.06 29.992C177.06 30.184 177.06 30.376 177.06 30.568C177.06 30.728 177.076 30.872 177.108 31C177.076 31.128 177.06 31.288 177.06 31.48V34.936C177.188 36.024 177.188 36.664 177.06 36.856C176.868 36.92 176.644 37.016 176.388 37.144C176.132 37.304 175.636 37.336 174.9 37.24C174.196 37.176 173.684 37.064 173.364 36.904L172.788 36.76C172.468 36.76 172.26 36.616 172.164 36.328C171.748 36.072 171.524 35.736 171.492 35.32C171.396 35.16 171.508 34.936 171.828 34.648C171.796 34.488 171.732 34.264 171.636 33.976C171.54 33.656 171.508 33.368 171.54 33.112C171.636 32.952 171.588 32.712 171.396 32.392C171.396 32.04 171.444 31.64 171.54 31.192C171.668 31.064 171.7 30.6 171.636 29.8C171.86 29.48 171.972 29.032 171.972 28.456C171.844 27.944 171.892 27.432 172.116 26.92C172.34 26.408 172.468 25.896 172.5 25.384C172.564 24.584 172.708 23.8 172.932 23.032C172.932 22.712 173.076 22.2 173.364 21.496C173.684 20.792 173.892 20.376 173.988 20.248L174.756 19.48L175.62 19.144H175.668C176.052 19.016 176.436 19.032 176.82 19.192C177.748 19.544 178.308 19.816 178.5 20.008C178.372 20.136 178.292 20.328 178.26 20.584C178.228 20.84 178.196 21.064 178.164 21.256C178.036 21.416 177.94 21.656 177.876 21.976Z" fill="white"/>
<path d="M7.09444 35.2161C6.09413 33.9711 5.84405 31.6276 7.34451 28.4052C8.46546 25.9978 10.8367 24.1695 12.096 23.4213C12.1062 23.4148 12.1188 23.4073 12.1339 23.3989C12.86 22.9915 19.2066 20.3325 24.4331 23.0589C29.3502 25.6239 29.6967 27.7461 30.6017 30.529C31.5068 33.312 29.8515 36.095 27.9342 36.8273C26.017 37.5597 23.1828 35.802 21.0154 34.557C18.8481 33.312 16.6807 33.8979 13.5965 35.802C10.5122 37.7062 8.09475 36.4612 7.09444 35.2161Z" fill="white"/>
<path d="M10.6164 5.73279C9.32297 6.57225 8.64907 7.2561 8.11558 8.66223C7.4487 10.4199 7.19862 13.0564 8.53237 15.107C9.86612 17.1576 11.7 18.0365 13.2005 17.89C14.701 17.7435 17.035 17.2309 18.202 14.0085C19.3691 10.7861 17.909 8.11019 16.9517 6.75809C16.2257 5.7328 14.2412 4.00898 10.6164 5.73279Z" fill="white"/>
<path d="M22.4964 5.73321C21.203 6.57268 20.5291 7.25653 19.9956 8.66266C19.3287 10.4203 19.0786 13.0568 20.4124 15.1074C21.7461 17.1581 23.58 18.0369 25.0805 17.8904C26.581 17.7439 28.915 17.2313 30.0821 14.0089C31.2491 10.7865 29.789 8.11062 28.8317 6.75852C28.1057 5.73323 26.1212 4.00941 22.4964 5.73321Z" fill="white"/>
<path d="M32.2707 15.0346C31.2068 15.6632 30.6433 16.1863 30.1646 17.2869C29.5662 18.6626 29.2674 20.7481 30.2546 22.4147C31.2419 24.0814 32.6724 24.8326 33.8754 24.7602C35.0784 24.6877 36.9604 24.349 38.0131 21.8252C39.0657 19.3014 38.0012 17.1347 37.2881 16.0335C36.7473 15.1985 35.2284 13.7722 32.2707 15.0346Z" fill="white"/>
<path d="M2.2343 15.1686C1.23056 15.8693 0.715977 16.43 0.338092 17.5605C-0.134265 18.9735 -0.243968 21.0733 0.89055 22.666C2.02507 24.2586 3.51886 24.9078 4.71153 24.7518C5.90419 24.5958 7.74974 24.1271 8.57137 21.5379C9.393 18.9488 8.13631 16.863 7.32607 15.8149C6.71168 15.0202 5.06882 13.7042 2.2343 15.1686Z" fill="white"/>
</svg>
