<svg width="19" height="16" viewBox="0 0 19 16" fill="none" xmlns="http://www.w3.org/2000/svg">
<path d="M3.45514 14.905C2.96796 14.3229 2.84617 13.2273 3.57693 11.7209C4.12285 10.5955 5.27771 9.74076 5.89099 9.39095C5.89595 9.38793 5.90211 9.38444 5.90944 9.38048C6.26309 9.19004 9.35401 7.947 11.8994 9.22157C14.2941 10.4207 14.4629 11.4128 14.9037 12.7138C15.3444 14.0148 14.5383 15.3158 13.6045 15.6582C12.6708 16.0006 11.2905 15.1789 10.2349 14.5968C9.1794 14.0148 8.12386 14.2887 6.62175 15.1789C5.11964 16.069 3.94231 15.487 3.45514 14.905Z" fill="#1E1E1E"/>
<path d="M5.17038 1.12173C4.54048 1.51418 4.21228 1.83387 3.95245 2.49122C3.62767 3.31292 3.50588 4.54546 4.15544 5.50411C4.805 6.46275 5.69815 6.8736 6.42891 6.80513C7.15967 6.73665 8.2964 6.49699 8.86477 4.99055C9.43314 3.48411 8.72204 2.23315 8.25581 1.60105C7.90226 1.12174 6.93574 0.315868 5.17038 1.12173Z" fill="#1E1E1E"/>
<path d="M10.9562 1.12193C10.3263 1.51438 9.99808 1.83407 9.73826 2.49142C9.41348 3.31312 9.29169 4.54566 9.94125 5.50431C10.5908 6.46295 11.484 6.8738 12.2147 6.80533C12.9455 6.73685 14.0822 6.49719 14.6506 4.99075C15.2189 3.48431 14.5078 2.23335 14.0416 1.60125C13.6881 1.12194 12.7215 0.316069 10.9562 1.12193Z" fill="#1E1E1E"/>
<path d="M15.7165 5.47025C15.1984 5.7641 14.9239 6.00866 14.6908 6.52317C14.3994 7.1663 14.2538 8.14125 14.7346 8.92041C15.2154 9.69958 15.9121 10.0507 16.498 10.0169C17.0839 9.98301 18.0005 9.82465 18.5131 8.64481C19.0258 7.46497 18.5074 6.45205 18.1601 5.93724C17.8967 5.54685 17.157 4.88007 15.7165 5.47025Z" fill="#1E1E1E"/>
<path d="M1.08815 5.5329C0.599307 5.86046 0.348695 6.1226 0.164658 6.65108C-0.0653898 7.31167 -0.118817 8.29328 0.433716 9.03785C0.98625 9.78242 1.71376 10.0859 2.29461 10.013C2.87546 9.94005 3.77428 9.72091 4.17443 8.5105C4.57458 7.3001 3.96255 6.32503 3.56795 5.83506C3.26872 5.46351 2.46862 4.84828 1.08815 5.5329Z" fill="#1E1E1E"/>
</svg>
