<svg width="32" height="32" viewBox="0 0 32 32" fill="none" xmlns="http://www.w3.org/2000/svg">
<rect width="32" height="32" rx="8" fill="#5D5EEA"/>
<path d="M11.0332 24.7522C11.0335 24.4204 11.1663 24.1023 11.4023 23.8678L17.838 17.4672C18.0328 17.2736 18.1874 17.0436 18.2928 16.7905C18.3982 16.5374 18.4525 16.2662 18.4525 15.9922C18.4525 15.7183 18.3982 15.447 18.2928 15.1939C18.1874 14.9409 18.0328 14.7109 17.838 14.5172L11.4107 8.1208C11.1815 7.88478 11.0547 7.56866 11.0575 7.24055C11.0604 6.91243 11.1927 6.59856 11.426 6.36653C11.6593 6.13451 11.9749 6.0029 12.3048 6.00005C12.6348 5.9972 12.9526 6.12333 13.1899 6.35129L19.6173 12.7427C20.4815 13.6039 20.9669 14.7709 20.9669 15.9876C20.9669 17.2044 20.4815 18.3714 19.6173 19.2326L13.1815 25.6332C13.0058 25.8081 12.7819 25.9272 12.5382 25.9757C12.2944 26.0242 12.0416 25.9998 11.8118 25.9055C11.582 25.8113 11.3854 25.6514 11.2468 25.4462C11.1083 25.2409 11.0339 24.9994 11.0332 24.7522Z" fill="white"/>
</svg>
