<svg width="40" height="40" viewBox="0 0 40 40" fill="none" xmlns="http://www.w3.org/2000/svg">
<g clip-path="url(#clip0_126_135)">
<path d="M35.905 11.84C35.9283 12.1916 35.9283 12.545 35.9283 12.9C35.9283 23.745 27.6717 36.25 12.5783 36.25V36.2433C8.12 36.25 3.75333 34.9733 0 32.565C0.648333 32.6433 1.3 32.6816 1.95333 32.6833C5.65 32.6866 9.24 31.4466 12.145 29.1633C8.63333 29.0966 5.55333 26.8066 4.47833 23.4633C5.70833 23.7 6.975 23.6516 8.18333 23.3233C4.35333 22.55 1.6 19.185 1.6 15.2783C1.6 15.2433 1.6 15.2083 1.6 15.175C2.74167 15.8116 4.01833 16.1633 5.325 16.2016C1.71833 13.7933 0.605 8.99662 2.78333 5.24662C6.95 10.3733 13.0983 13.49 19.6967 13.8216C19.035 10.9716 19.94 7.98496 22.07 5.97996C25.375 2.87162 30.5733 3.03162 33.6817 6.33662C35.52 5.97496 37.2817 5.29996 38.8933 4.34496C38.28 6.24496 36.9983 7.85829 35.285 8.88496C36.9133 8.68996 38.5017 8.25496 40 7.59162C38.8983 9.23996 37.5117 10.6783 35.905 11.84Z" fill="white"/>
</g>
<defs>
<clipPath id="clip0_126_135">
<rect width="40" height="40" fill="white"/>
</clipPath>
</defs>
</svg>
